<?xml version="1.0" standalone="no"?>
<!DOCTYPE svg PUBLIC "-//W3C//DTD SVG 20010904//EN"
 "http://www.w3.org/TR/2001/REC-SVG-20010904/DTD/svg10.dtd">
<svg version="1.0" xmlns="http://www.w3.org/2000/svg"
 width="260.000000pt" height="260.000000pt" viewBox="0 0 260.000000 260.000000"
 preserveAspectRatio="xMidYMid meet">
<metadata>
Created by potrace 1.11, written by Peter Selinger 2001-2013
</metadata>
<g transform="translate(0.000000,260.000000) scale(0.100000,-0.100000)"
fill="#000000" stroke="none">
<path d="M1099 2475 c-481 -88 -863 -446 -977 -916 -28 -116 -36 -186 -34
-314 3 -305 117 -586 329 -815 63 -68 220 -200 237 -200 2 0 31 -16 63 -35
107 -63 286 -125 413 -141 80 -11 287 -12 355 -2 330 48 628 231 825 506 153
214 229 461 225 727 -3 126 -8 169 -35 277 -84 330 -284 595 -581 768 -94 56
-188 93 -311 126 -88 23 -127 27 -268 30 -110 1 -190 -2 -241 -11z m413 -42
c403 -69 746 -349 900 -734 150 -374 91 -815 -152 -1140 -106 -142 -285 -288
-440 -361 -65 -30 -230 -90 -230 -83 0 2 -15 -1 -32 -6 -80 -22 -305 -31 -413
-15 -502 72 -911 469 -999 971 -19 104 -18 309 0 410 29 158 98 327 190 460
53 79 45 69 144 170 170 174 439 308 665 332 28 3 52 7 54 9 10 9 240 0 313
-13z"/>
<path d="M1926 1960 l-168 -90 -28 20 c-43 31 -56 22 -22 -16 62 -69 73 -86
61 -101 -25 -29 -47 -34 -78 -18 -27 13 -29 19 -25 52 9 68 25 128 41 152 9
14 10 20 3 16 -32 -20 -66 -147 -71 -268 -2 -26 -8 -52 -14 -57 -6 -5 -36 -12
-66 -16 -30 -3 -59 -10 -65 -15 -6 -5 -13 -7 -15 -4 -3 2 -23 -1 -45 -7 -21
-6 -43 -11 -47 -10 -4 1 -10 -5 -13 -13 -3 -8 -10 -12 -15 -10 -12 8 -105 -40
-169 -88 -65 -48 -160 -145 -160 -164 0 -7 -4 -13 -9 -13 -17 0 -91 -167 -111
-250 -20 -88 -25 -94 -80 -111 -22 -7 -42 -22 -52 -40 -10 -16 -26 -29 -36
-29 -53 0 -202 -65 -254 -112 -32 -29 -32 -29 -3 -10 17 11 52 32 78 45 l48
26 30 -30 c16 -16 27 -29 23 -29 -4 0 1 -9 10 -19 16 -18 14 -24 -43 -140 -34
-66 -61 -123 -61 -126 0 -19 25 18 81 117 35 61 65 106 67 100 2 -7 7 -12 12
-12 5 0 21 -12 37 -28 15 -15 41 -37 57 -48 l28 -20 -32 -65 c-18 -35 -42 -75
-54 -89 -17 -20 -17 -22 -2 -10 30 23 85 114 111 183 24 64 36 131 39 204 1
31 5 43 16 44 8 0 26 2 40 4 14 3 42 7 62 10 37 5 112 27 153 44 11 5 35 14
52 21 18 7 30 17 26 23 -4 6 -1 7 6 3 7 -5 20 -1 29 7 9 7 25 17 35 20 11 4
15 12 11 18 -4 7 -3 9 4 5 5 -3 25 6 44 21 53 44 60 52 53 63 -3 6 1 7 9 4 9
-3 16 -1 16 4 0 6 14 26 30 44 39 42 123 210 124 247 1 16 4 27 9 24 4 -2 8 5
8 16 1 12 3 24 4 29 1 4 5 26 10 49 10 58 53 97 108 99 23 2 43 4 45 5 1 1 10
2 20 4 83 9 168 43 199 78 l18 21 -28 -21 c-53 -41 -208 -73 -233 -49 -10 11
-7 19 21 46 38 37 33 37 93 -17 20 -19 34 -16 27 7 -4 14 21 67 87 182 106
185 102 178 91 178 -4 0 -84 -41 -177 -90z m-76 -112 c0 -4 -8 -12 -18 -17
-20 -11 -62 7 -43 18 15 9 61 9 61 -1z m55 -76 c-2 -9 -4 -24 -4 -32 -1 -12
-3 -12 -17 2 -13 13 -14 20 -4 37 13 24 30 20 25 -7z m-219 -71 c-12 -19 -23
-12 -23 15 0 23 1 24 14 11 9 -8 12 -20 9 -26z m-146 -111 c0 -5 -8 -10 -17
-10 -15 0 -16 2 -3 10 19 12 20 12 20 0z m-59 -34 c-7 -8 -25 -19 -41 -26 -24
-10 -33 -9 -52 4 -12 9 -17 16 -11 16 6 0 24 5 40 12 15 6 34 12 41 14 8 1 17
5 20 9 12 12 14 -15 3 -29z m-107 -42 c4 -9 5 -18 4 -19 -62 -41 -73 -44 -97
-25 l-25 18 40 20 c48 26 70 27 78 6z m246 -11 c0 -21 -3 -24 -9 -14 -5 8 -7
20 -4 28 8 21 13 15 13 -14z m-36 -28 c23 -16 24 -16 7 -59 -9 -24 -19 -45
-22 -47 -8 -6 -78 68 -71 75 3 3 -1 6 -9 6 -13 0 48 38 64 39 4 1 18 -6 31
-14z m-313 -27 c17 -22 26 -78 13 -90 -3 -4 -13 1 -22 10 -10 10 -30 27 -46
40 -29 22 -29 23 -10 42 25 25 42 25 65 -2z m206 -48 c18 -17 37 -30 42 -30 6
0 11 -4 11 -9 0 -5 8 -12 19 -16 18 -5 18 -7 1 -41 -10 -19 -23 -41 -29 -48
-6 -7 -10 -15 -8 -17 1 -3 -11 11 -28 31 -16 19 -49 55 -72 79 -46 47 -46 47
-11 67 34 18 40 17 75 -16z m-225 -74 c19 -21 28 -42 28 -65 l0 -34 -22 20
c-47 41 -94 82 -117 100 l-24 19 28 28 28 28 26 -32 c14 -18 38 -46 53 -64z
m-94 -35 c26 -30 62 -70 80 -89 34 -37 38 -52 22 -83 -10 -18 -16 -14 -70 42
-37 38 -64 58 -71 53 -7 -4 -9 -3 -6 3 4 6 -9 23 -28 37 -34 26 -34 28 -19 51
9 13 13 28 11 32 -3 5 4 9 15 9 12 0 39 -22 66 -55z m232 29 c0 -5 23 -28 52
-51 28 -22 52 -49 53 -59 1 -11 -2 -17 -7 -14 -4 3 -11 -2 -14 -10 -12 -32
-29 -19 -112 94 -15 20 -6 50 14 50 8 0 14 -4 14 -10z m-319 -90 c14 -19 50
-59 78 -88 l52 -53 -35 -14 c-46 -19 -49 -19 -73 8 -29 32 -72 67 -82 67 -21
0 -21 21 -2 61 11 23 18 46 15 51 -3 4 0 7 7 6 8 -2 25 -19 40 -38z m337 -49
c18 -14 32 -28 32 -31 0 -11 -37 -50 -47 -50 -20 0 -53 60 -53 95 0 40 -5 41
68 -14z m-389 -80 c8 -11 19 -17 25 -14 6 3 8 2 3 -2 -4 -5 0 -16 9 -26 15
-17 14 -19 -20 -33 -29 -12 -42 -13 -61 -4 -30 13 -32 42 -8 93 14 30 19 34
28 22 5 -8 16 -24 24 -36z m354 -27 c-2 -7 -12 -15 -21 -18 -9 -3 -25 -11 -34
-18 -9 -7 -21 -9 -25 -4 -4 4 0 13 9 20 9 7 20 24 23 39 7 26 8 26 30 9 12 -9
20 -22 18 -28z m-94 -48 c9 -11 5 -16 -19 -26 -16 -7 -28 -15 -26 -19 6 -9
-34 -7 -56 3 -27 12 -22 22 20 39 48 19 67 20 81 3z m-329 -27 c0 -5 -4 -9 -8
-9 -5 0 -9 7 -9 15 0 8 4 12 9 9 4 -3 8 -9 8 -15z m220 -40 c0 -3 -24 -13 -52
-21 -39 -11 -55 -12 -60 -4 -16 28 -11 39 22 51 30 10 39 10 63 -3 15 -9 27
-19 27 -23z m-154 -28 l24 -19 -47 -7 c-65 -9 -68 -8 -71 10 -2 8 7 19 20 24
35 14 47 13 74 -8z m-132 -35 c-3 -8 -16 -11 -37 -8 l-32 5 30 13 c33 13 47
10 39 -10z m2 -88 c-1 -38 -3 -46 -11 -32 -5 9 -25 31 -43 48 -28 25 -31 31
-16 36 9 3 29 4 44 2 26 -4 28 -7 26 -54z m-153 12 c-18 -46 -27 -48 -67 -16
l-28 24 33 10 c19 6 43 13 54 15 11 3 21 5 22 6 1 0 -6 -17 -14 -39z m67 -21
c8 -11 30 -29 47 -40 29 -18 32 -24 28 -57 -3 -20 -9 -50 -13 -67 l-8 -30 -19
30 c-11 17 -38 49 -60 72 l-41 41 18 36 c21 42 28 44 48 15z"/>
</g>
</svg>
