<?xml version="1.0" standalone="no"?>
<!DOCTYPE svg PUBLIC "-//W3C//DTD SVG 20010904//EN"
 "http://www.w3.org/TR/2001/REC-SVG-20010904/DTD/svg10.dtd">
<svg version="1.0" xmlns="http://www.w3.org/2000/svg"
 width="357.000000pt" height="357.000000pt" viewBox="0 0 357.000000 357.000000"
 preserveAspectRatio="xMidYMid meet">
<metadata>
Created by potrace 1.11, written by Peter Selinger 2001-2013
</metadata>
<g transform="translate(0.000000,357.000000) scale(0.100000,-0.100000)"
fill="#000000" stroke="none">
<path d="M0 1785 l0 -1785 1785 0 1785 0 0 1785 0 1785 -1785 0 -1785 0 0
-1785z m2118 1548 c64 -39 105 -107 110 -183 13 -180 -175 -305 -343 -226
-126 58 -173 204 -105 323 50 87 124 126 228 119 47 -3 75 -11 110 -33z m-514
-546 c48 -37 73 -104 57 -157 -25 -83 -91 -127 -176 -117 -80 8 -135 72 -135
154 0 124 153 197 254 120z m309 -468 c38 -19 57 -51 57 -97 0 -97 -114 -141
-185 -71 -25 24 -30 38 -30 75 0 39 5 50 33 75 35 31 85 38 125 18z m-284
-353 c8 -9 10 -136 9 -452 l-3 -439 -85 0 -85 0 -5 370 -5 370 -70 3 c-38 2
-75 8 -82 14 -16 13 -17 101 -3 129 10 17 23 19 164 19 118 0 156 -3 165 -14z
m569 2 c13 -13 16 -116 4 -135 -4 -7 -38 -13 -82 -15 l-75 -3 -5 -370 -5 -370
-79 -3 c-57 -2 -82 1 -87 10 -13 20 -11 855 1 879 10 17 23 19 163 19 106 0
157 -4 165 -12z m-158 -1057 c0 -4 -53 -93 -118 -197 -65 -104 -153 -246 -196
-317 -43 -70 -86 -132 -96 -137 -10 -6 -49 -10 -85 -10 -57 0 -66 2 -61 16 3
9 48 84 100 167 51 84 135 220 186 302 51 83 99 158 108 168 12 13 31 17 89
17 40 0 73 -4 73 -9z m-992 -88 l-3 -88 -111 -60 c-120 -65 -147 -83 -139 -95
3 -5 53 -34 113 -65 147 -78 142 -73 142 -166 0 -43 -3 -80 -7 -82 -12 -7
-445 229 -460 249 -14 19 -16 107 -4 138 7 18 431 254 459 255 10 1 12 -20 10
-86z m1640 -28 c119 -64 223 -123 230 -132 16 -22 16 -124 -1 -147 -16 -21
-448 -256 -459 -249 -5 2 -8 39 -8 82 0 60 4 82 16 92 9 7 66 40 127 74 61 33
112 65 114 72 2 6 -48 39 -111 73 -64 34 -123 68 -131 76 -18 18 -22 174 -5
174 6 0 108 -52 228 -115z"/>
</g>
</svg>
